<svg width="48" height="48" viewBox="0 0 48 48" fill="none" xmlns="http://www.w3.org/2000/svg">
  <defs>
    <linearGradient id="logoGradient" x1="0%" y1="0%" x2="100%" y2="100%">
      <stop offset="0%" style="stop-color:#3B82F6;stop-opacity:1" />
      <stop offset="50%" style="stop-color:#6366F1;stop-opacity:1" />
      <stop offset="100%" style="stop-color:#8B5CF6;stop-opacity:1" />
    </linearGradient>
    <filter id="glow">
      <feGaussianBlur stdDeviation="2" result="coloredBlur"/>
      <feMerge> 
        <feMergeNode in="coloredBlur"/>
        <feMergeNode in="SourceGraphic"/>
      </feMerge>
    </filter>
  </defs>
  
  <!-- Background Circle -->
  <circle cx="24" cy="24" r="22" fill="url(#logoGradient)" filter="url(#glow)"/>
  
  <!-- Palm Tree Trunk -->
  <path d="M24 32 L24 40" stroke="white" stroke-width="2" stroke-linecap="round"/>
  
  <!-- Palm Tree Leaves -->
  <path d="M24 32 Q20 28 18 24 Q16 20 14 16" stroke="white" stroke-width="2" stroke-linecap="round" fill="none"/>
  <path d="M24 32 Q28 28 30 24 Q32 20 34 16" stroke="white" stroke-width="2" stroke-linecap="round" fill="none"/>
  <path d="M24 30 Q22 26 20 22" stroke="white" stroke-width="2" stroke-linecap="round" fill="none"/>
  <path d="M24 30 Q26 26 28 22" stroke="white" stroke-width="2" stroke-linecap="round" fill="none"/>
  
  <!-- Sun -->
  <circle cx="36" cy="12" r="4" fill="#FCD34D" opacity="0.8"/>
  <circle cx="36" cy="12" r="6" stroke="#FCD34D" stroke-width="1" opacity="0.4" fill="none"/>
  
  <!-- Ocean Waves -->
  <path d="M8 42 Q12 40 16 42 Q20 44 24 42 Q28 40 32 42 Q36 44 40 42" stroke="white" stroke-width="1" fill="none" opacity="0.6"/>
  <path d="M6 44 Q10 42 14 44 Q18 46 22 44 Q26 42 30 44 Q34 46 38 44 Q42 42 46 44" stroke="white" stroke-width="1" fill="none" opacity="0.4"/>
  
  <!-- Sparkle Effect -->
  <circle cx="12" cy="12" r="1" fill="white" opacity="0.8"/>
  <circle cx="40" cy="36" r="0.8" fill="white" opacity="0.6"/>
  <circle cx="16" cy="8" r="0.6" fill="white" opacity="0.7"/>
</svg>
